      ßßßßßßßßßßßßßßßßßßßßßßßßßßßßßßßßßßßßßßßßßßßßßßßßßßßßßßßßßßßßßßßßßßßßßß

                      Û°°°°°°°°°°°°°°°°°°°°°°°°°°°°°°°°°°°°°Û
                     ÛÛ [Ipod]I Love You Man[2009]DvDrip-LW ÛÛ
                      Û°°°°°°°°°°°°°°°°°°°°°°°°°°°°°°°°°°°°°Û

ile Name    : [Ipod]I Love You Man[2009]DvDrip-LW
Type         : Movie
Format       : MP4
File Size    : 789 Mb
Duration     : 01:44:46
Language     : English
Source       : DvD
Subtitles    : None
Genre        : Comedy
IMDB Link    : http://www.imdb.com/title/tt1155056/
IMDB Rating  : 7.8/10
IMDB Votes   : 13,623 Votes
     ÜÜÜÜÜÜÜÜÜÜÜÜÜÜÜÜÜÜÜÜÜÜÜÜÜÜÜÜÜÜÜÜÜÜÜÜÜÜÜÜÜÜÜÜÜÜÜÜÜÜÜÜÜÜÜÜÜÜÜÜÜÜÜÜÜÜÜÜÜÜ
 
                        Û°°°°°°°°°°°°°°°°°°°°°°°°Û
                       ÛÛ       Video Info       ÛÛ
                        Û°°°°°°°°°°°°°°°°°°°°°°°°Û

Format                           : MPEG-4 Visual
Format profile                   : Simple@L3
Format settings, BVOP            : No
Format settings, QPel            : No
Format settings, GMC             : No warppoints
Format settings, Matrix          : Default (H.263)
Codec ID                         : 20
Duration                         : 1h 44mn
Bit rate mode                    : Constant
Bit rate                         : 889 Kbps
Nominal bit rate                 : 2 048 Kbps
Width                            : 320 pixels
Height                           : 240 pixels
Display aspect ratio             : 4/3
Frame rate mode                  : Constant
Frame rate                       : 29.970 fps
Resolution                       : 24 bits
Colorimetry                      : 4:2:0
Scan type                        : Progressive
Bits/(Pixel*Frame)               : 0.386
Stream size                      : 666 MiB (84%)
ÜÜÜÜÜÜÜÜÜÜÜÜÜÜÜÜÜÜÜÜÜÜÜÜÜÜÜÜÜÜÜÜÜÜÜÜÜÜÜÜÜÜÜÜÜÜÜÜÜÜÜÜÜÜÜÜÜÜÜÜÜÜÜÜÜÜÜÜÜÜ

                         Û°°°°°°°°°°°°°°°°°°°°°°°°Û
                        ÛÛ      Sound Info        ÛÛ
                         Û°°°°°°°°°°°°°°°°°°°°°°°°Û

Format                           : AAC
Format/Info                      : Advanced Audio Codec
Format version                   : Version 4
Format profile                   : LC
Format settings, SBR             : No
Codec ID                         : 40
Duration                         : 1h 44mn
Bit rate mode                    : Constant
Bit rate                         : 160 Kbps
Nominal bit rate                 : 80.0 Kbps
Channel(s)                       : 2 channels
Channel positions                : L R
Sampling rate                    : 48.0 KHz
Resolution                       : 16 bits
Stream size                      : 120 MiB (15%)
    ÜÜÜÜÜÜÜÜÜÜÜÜÜÜÜÜÜÜÜÜÜÜÜÜÜÜÜÜÜÜÜÜÜÜÜÜÜÜÜÜÜÜÜÜÜÜÜÜÜÜÜÜÜÜÜÜÜÜÜÜÜÜÜÜÜÜÜÜÜÜ

                          Û°°°°°°°°°°°°°°°°°°°°°°°°Û
                         ÛÛ          Plot          ÛÛ
                          Û°°°°°°°°°°°°°°°°°°°°°°°°Û

In this bromance, the cinematic equivalent of a 
rom-com buddy flick, Paul Rudd plays a recently 
engaged guy who's got the bride-to-be of his 
dreams but lacks an all-important significant other 
when it comes to their pending nuptials: a best man. 
On a determined hunt for a stranger who will stand 
up for him, he eventually meets a candidate (Jason 
Segel) with wedding-party potential. Jaime Pressly, 
Rashida Jones and Jon Favreau co-star.

Starring: Paul Rudd, Jason Segel

Director: John Hamburg
    ÜÜÜÜÜÜÜÜÜÜÜÜÜÜÜÜÜÜÜÜÜÜÜÜÜÜÜÜÜÜÜÜÜÜÜÜÜÜÜÜÜÜÜÜÜÜÜÜÜÜÜÜÜÜÜÜÜÜÜÜÜÜÜÜÜÜÜÜÜÜ